<?xml version="1.0" standalone="no"?>
<!DOCTYPE svg PUBLIC "-//W3C//DTD SVG 20010904//EN"
 "http://www.w3.org/TR/2001/REC-SVG-20010904/DTD/svg10.dtd">
<svg version="1.0" xmlns="http://www.w3.org/2000/svg"
 width="260.000000pt" height="260.000000pt" viewBox="0 0 260.000000 260.000000"
 preserveAspectRatio="xMidYMid meet">
<metadata>
Created by potrace 1.11, written by Peter Selinger 2001-2013
</metadata>
<g transform="translate(0.000000,260.000000) scale(0.100000,-0.100000)"
fill="#000000" stroke="none">
<path d="M0 1300 l0 -1300 1300 0 1300 0 0 1300 0 1300 -1300 0 -1300 0 0
-1300z m1479 1191 c27 -17 33 -104 15 -243 l-4 -38 117 0 c138 0 222 -11 318
-41 57 -17 78 -30 125 -77 39 -39 62 -73 74 -107 40 -119 29 -253 -30 -351
l-33 -55 52 -52 c29 -29 63 -73 76 -99 69 -144 41 -347 -64 -462 -19 -21 -35
-40 -35 -41 0 -2 18 -6 40 -10 22 -4 50 -15 62 -25 35 -28 29 -119 -21 -330
-23 -96 -51 -214 -62 -261 -24 -103 -33 -118 -79 -128 -19 -4 -361 -7 -759 -5
-721 3 -724 3 -745 24 -19 19 -21 32 -20 138 0 70 5 126 12 139 16 29 69 43
160 43 l72 0 0 830 0 830 -77 1 c-110 0 -145 14 -161 64 -18 51 -9 208 13 242
l15 23 463 0 c254 0 468 -4 476 -9z"/>
<path d="M600 2346 l0 -74 120 -7 120 -8 0 -918 0 -919 -43 0 c-24 0 -78 -3
-120 -6 l-77 -7 0 -73 0 -74 699 0 699 0 12 48 c36 141 110 470 110 488 0 17
-11 23 -72 37 -40 10 -78 17 -84 17 -6 0 -39 -83 -74 -185 -34 -102 -70 -195
-79 -206 -25 -30 -106 -38 -407 -41 -218 -2 -274 0 -287 11 -16 12 -17 66 -17
600 0 322 3 731 7 909 l6 322 116 1 c64 1 130 4 146 8 30 6 30 7 33 79 l3 72
-406 0 -405 0 0 -74z"/>
<path d="M1220 2075 l0 -45 70 0 70 0 0 -520 0 -520 -70 0 -70 0 0 -45 0 -45
263 0 c285 0 360 9 452 55 122 59 186 150 193 275 5 90 -13 142 -73 208 -38
43 -142 102 -179 102 -46 0 -46 16 -1 38 187 91 237 312 100 445 -78 76 -195
97 -537 97 l-218 0 0 -45z m540 -60 c95 -33 150 -107 150 -200 0 -95 -62 -176
-165 -214 -60 -22 -162 -35 -204 -26 l-31 7 0 223 c0 204 2 224 18 229 31 9
187 -3 232 -19z m-1 -540 c182 -43 267 -191 197 -342 -46 -97 -142 -143 -302
-143 -102 0 -139 11 -148 44 -8 29 -8 386 0 425 l7 31 91 0 c50 0 120 -7 155
-15z"/>
<path d="M1600 1804 l0 -137 41 7 c93 15 169 79 169 143 0 64 -85 123 -177
123 l-33 0 0 -136z"/>
<path d="M1600 1241 l0 -161 55 0 c117 0 225 71 225 148 0 89 -81 149 -224
167 l-56 7 0 -161z"/>
<path d="M1200 1510 l0 -430 35 0 35 0 0 430 0 430 -35 0 -35 0 0 -430z"/>
<path d="M1498 813 l-308 -3 0 -152 0 -151 261 5 c223 5 263 8 277 22 9 9 37
77 62 151 37 107 43 135 31 133 -9 -2 -154 -4 -323 -5z"/>
</g>
</svg>
